Patient4_TMGait_0pt3_03_left_02_EMG.mot
version=1
nRows=13
nColumns=33
inDegrees=no
endheader
time	1LAddLong	2LGlutMax	3LGlutMed	4LIliopsoas	5LSemiMemb	6LBicFemLong	7LRecFem	8LVastMed	9LVastLat	10LGasMed	11LTibAnt	12lTibPost	13LPeroneusLong	14LSol	15LExtDigLong	16LFlexDigLong	17RAddLong	18RGlutMax	19RGlutMed	20RIliopsoas	21RSemiMemb	22RBicFemLong	23RRecFem	24RVastMed	25RVastLat	26RGasMed	27RTibAnt	28RTibPost	29RPeroneusLong	30RSol	31RExtDigLong	32RFlexDigLong
3.33	-0.00946	0.14786	-0.042267	0.015259	0.032654	0.01236	0.050964	-0.005341	0.044556	0.019836	0.013733	0.002441	0.13977	0.023499	0.017853	0.005188	0.006256	-0.048218	0.017853	0.12787	0.001831	-0.092926	0.041809	-0.011902	0.016022	-0.005646	0.062408	-0.25085	0.7251	-0.22675	-0.002289	-0.007019
3.331	-0.014801	0.12009	0.022583	-0.00412	0.014038	-0.006866	0.024109	-0.009918	0.030975	0.011292	0.011749	0.007019	0.062103	0.039978	0.009003	0.006409	0.001068	-0.066376	0.087433	0.027313	-0.038757	-0.050659	-0.000763	-0.026245	0.031128	0.006866	0.075073	-0.010681	0.24658	-0.080109	-0.002594	-0.005951
3.332	-0.011139	0.10208	0.030823	-0.003967	-0.013733	-0.007629	0.010834	-0.006714	0.060577	0.024261	0.016785	-0.005035	-0.079651	0.069733	0.038605	0.000458	-0.009613	-0.003052	-0.04715	-0.027618	-0.08606	-0.014191	-0.01358	-0.019379	0.022125	0.008087	0.062866	0.065613	-0.13168	0.18463	-0.002594	-0.00061
3.333	-0.020599	0.066681	0.012817	0.011749	-0.052643	0.031891	0.037384	-0.001831	0.17517	0.023804	0.019073	0.000153	0.18677	0.055084	0.00885	-0.003967	-0.017242	-0.045624	-0.10147	-0.011749	-0.038757	0.043945	-0.036621	-0.015717	0.032806	-0.006866	0.04425	0.031891	-0.44571	0.37552	-0.00351	-0.010376
3.334	-0.015106	0.075073	0.024109	0.008545	-0.059052	0.008698	0.12528	0.012512	0.10498	0.054626	0.020294	0.002747	0.26093	0.003357	-0.020447	-0.002289	-0.04303	-0.095215	-0.00061	0.023804	-0.028534	0.070038	-0.017242	0.028076	0.037994	0.005341	0.010986	-0.023651	-0.21805	0.3772	0.003662	-0.009918
3.335	-0.008545	0.13092	0.075226	0.011292	-0.019684	-0.12222	0.10956	0.016327	0.097351	0.073853	0.016937	-0.001221	0.009003	0.018005	-0.022583	0.000916	-0.043945	-0.10666	-0.067902	-0.0177	0.036621	0.087433	-0.014038	-0.027618	0.032349	0.007324	0.034485	-0.040131	0.067749	0.39627	-0.001373	-0.016785
3.336	-0.009613	0.11108	0.017395	0.020447	0.022125	-0.14832	0.09491	0.02182	0.13748	0.066986	0.018311	0.013885	0.067139	0.034943	-0.002136	0.002136	-0.035858	-0.1326	-0.12405	-0.035095	0.032501	0.091858	0.035858	-0.038452	0.026703	0.008392	0.041199	-0.049438	0.2565	0.21912	-0.001221	-0.013428
3.337	-0.003967	0.13519	-0.004578	0.007172	-0.03891	0.037994	0.064545	0.015869	0.13916	0.023499	0.000305	-0.002899	0.61172	0.065765	0.013275	0.011597	-0.004883	-0.056458	-0.079193	-0.091553	-0.005798	0.073547	0.036926	-0.011749	-0.005646	0.002747	0.060425	-0.032196	0.70038	-0.25406	-0.000305	-0.008545
3.338	0.015106	0.20172	0.022583	-0.006409	-0.006561	0.014343	0.030975	-0.003357	0.1384	-0.038452	-0.018921	0.00946	-0.25131	0.14496	0.034332	0.014343	0.001526	-0.022125	0.15732	0.015869	0.023193	0.006714	0.048676	0.014801	0.008545	-0.014954	0.066223	-0.017395	0.57495	-0.64041	-0.001068	-0.007935
3.339	0.011292	0.27069	0.039825	0	0.06073	0.1149	0.076294	-0.00351	0.1268	-0.060577	-0.019684	0.00946	-0.074921	0.18967	0.045929	-0.009155	0.013733	-0.022736	0.45212	0.067902	0.003967	0	0.039673	-0.000763	0.047455	-0.012054	0.0737	-0.02182	0.10223	-0.44281	-0.002289	-0.007935
3.34	0.004425	0.25528	-0.057373	0.014496	-0.021667	0.22018	0.091095	0.002441	0.066681	-0.003815	0.013275	0.003204	-0.058441	0.045776	-0.048218	-0.001221	0.025177	-0.037384	0.15808	0.015717	-0.00473	-0.049438	0.042877	-0.046387	0.011292	0.006561	0.097961	-0.02594	-0.66879	0.38727	-0.001221	-0.011292
3.341	0.00473	0.28229	-0.054932	-0.008698	-0.083313	0.29953	0.019684	0.010834	-0.018158	0.022888	0.039825	0.012207	-0.40009	-0.031281	-0.10284	-0.009003	0.030518	-0.13184	-0.32944	0.045929	-0.005951	-0.047455	0.064087	-0.035553	0.018768	0.036774	0.10941	-0.0383	-0.9285	0.1294	-0.003357	-0.006714
3.342	-0.006561	0.35843	0.024109	-0.007172	-0.098877	0.26916	-0.010681	0.016327	-0.14435	0.03479	0.053406	0.002136	-0.41397	-0.033722	-0.09964	-0.005798	0.045166	-0.028839	-0.31693	0.037689	0.001221	-0.022888	0.070038	-0.032196	0.009003	0.036011	0.14267	-0.083008	-0.84152	-0.28381	-0.00473	-0.001373
